<?xml version="1.0" standalone="no"?>
<!DOCTYPE svg PUBLIC "-//W3C//DTD SVG 20010904//EN"
 "http://www.w3.org/TR/2001/REC-SVG-20010904/DTD/svg10.dtd">
<svg version="1.0" xmlns="http://www.w3.org/2000/svg"
 width="316.000000pt" height="147.000000pt" viewBox="0 0 316.000000 147.000000"
 preserveAspectRatio="xMidYMid meet">

<g transform="translate(0.000000,147.000000) scale(0.100000,-0.100000)"
fill="#000000" stroke="none">
<path d="M1027 998 c-8 -18 -66 -155 -131 -305 -64 -149 -116 -274 -116 -278
0 -3 30 -5 66 -3 l67 3 92 215 c51 118 97 214 101 213 5 0 37 -69 73 -152 l64
-151 64 0 c34 0 63 4 63 9 0 5 -46 116 -101 245 l-101 236 -64 0 c-62 0 -64
-1 -77 -32z"/>
<path d="M2517 998 c-8 -18 -66 -155 -131 -305 -64 -149 -116 -274 -116 -278
0 -3 30 -5 66 -3 l67 3 92 215 c51 118 97 214 101 213 5 0 37 -69 73 -152 l64
-151 64 0 c34 0 63 4 63 9 0 5 -46 116 -101 245 l-101 236 -64 0 c-62 0 -64
-1 -77 -32z"/>
<path d="M270 966 l0 -56 53 0 c64 0 123 -16 161 -43 65 -46 87 -175 43 -257
-30 -58 -73 -79 -175 -87 l-82 -6 0 -55 0 -55 98 5 c121 6 186 32 242 95 48
55 70 118 70 203 0 91 -23 150 -81 214 -63 69 -108 87 -231 94 l-98 5 0 -57z"/>
<path d="M1659 985 c-60 -31 -133 -113 -153 -172 -45 -133 16 -288 140 -355
221 -118 502 -2 516 212 l3 45 -162 3 -163 2 0 -50 0 -50 90 0 c50 0 90 -3 90
-8 0 -20 -37 -56 -74 -73 -90 -41 -228 -13 -289 60 -69 83 -54 207 34 269 37
26 39 29 39 85 0 66 -4 67 -71 32z"/>
</g>
</svg>
